<?xml version="1.0" encoding="utf-8"?>
<!-- Generator: Adobe Illustrator 24.0.3, SVG Export Plug-In . SVG Version: 6.00 Build 0)  -->
<svg version="1.1" id="Layer_1" xmlns="http://www.w3.org/2000/svg" xmlns:xlink="http://www.w3.org/1999/xlink" x="0px" y="0px"
	 viewBox="0 0 180 75" style="enable-background:new 0 0 180 75;" xml:space="preserve">
<style type="text/css">
	.st0{fill:#FFFFFF;}
</style>
<g>
	<path class="st0" d="M59.79,33.89l-9.51-9.51c-0.73-0.73-1.92-0.73-2.64,0l-1.41,1.41l-5.3-5.3c-0.73-0.73-1.92-0.73-2.64,0
		L25.91,32.87l-8.49-8.49c-0.73-0.73-1.92-0.73-2.64,0l-9.51,9.51c-0.73,0.73-0.73,1.92,0,2.64l17.91,17.91c0,0,0,0,0,0l0.01,0.01
		c0.73,0.73,1.92,0.73,2.64,0l6.71-6.71l6.7,6.7c0.73,0.73,1.92,0.73,2.64,0l17.91-17.91C60.52,35.8,60.52,34.61,59.79,33.89z
		 M15.07,43.7l-7.83-7.83c-0.36-0.36-0.36-0.96,0-1.32l8.18-8.18c0.36-0.36,0.96-0.36,1.32,0l7.83,7.83L15.07,43.7
		C15.07,43.7,15.07,43.7,15.07,43.7z M41.22,52.46c-0.36,0.36-0.96,0.36-1.32,0l-6.04-6.04l0,0l-1.31-1.31l-1.32,1.32l-6.05,6.05
		c-0.36,0.36-0.96,0.36-1.32,0l-6.74-6.74c-0.36-0.36-0.36-0.96,0-1.32l8.84-8.84l1.33-1.33l11.73-11.73c0.36-0.36,0.96-0.36,1.32,0
		l4.58,4.58l1.34,1.34l0.82,0.82c0.36,0.36,0.36,0.96,0,1.32l-6.44,6.44l1.31,1.31l0.08,0.08l6.63,6.63L41.22,52.46z M57.8,35.89
		l-7.83,7.83l-6.7-6.7l5.78-5.78c0.73-0.73,0.73-1.92,0-2.64l-1.47-1.47l0.73-0.73c0.36-0.36,0.96-0.36,1.32,0l8.17,8.17
		C58.16,34.93,58.16,35.52,57.8,35.89z"/>
	<g>
		<path class="st0" d="M85,33.06c0.26,0,0.5,0.09,0.71,0.26c0.21,0.18,0.32,0.4,0.32,0.66c0,0.12-0.03,0.26-0.08,0.4l-4.38,11.09
			c-0.11,0.23-0.26,0.41-0.46,0.54c-0.2,0.13-0.43,0.2-0.67,0.2c-0.23,0-0.44-0.07-0.65-0.2c-0.2-0.13-0.36-0.31-0.46-0.54
			l-3.64-9.27l-3.62,9.27c-0.09,0.23-0.24,0.41-0.45,0.54c-0.21,0.13-0.44,0.2-0.69,0.2c-0.23,0-0.45-0.07-0.66-0.2
			c-0.21-0.13-0.37-0.31-0.48-0.54l-4.38-11.06c-0.05-0.14-0.08-0.26-0.08-0.37c0-0.28,0.12-0.52,0.36-0.71
			c0.24-0.19,0.5-0.29,0.78-0.29c0.42,0,0.72,0.21,0.9,0.63l3.62,9.74l3.72-9.66c0.11-0.23,0.25-0.4,0.44-0.53
			c0.18-0.12,0.38-0.18,0.59-0.18c0.23,0,0.44,0.06,0.62,0.18c0.18,0.12,0.32,0.3,0.41,0.53l3.72,9.64l3.64-9.69
			C84.3,33.28,84.59,33.06,85,33.06z"/>
		<path class="st0" d="M90.08,45.5c-0.92-0.55-1.64-1.32-2.14-2.34c-0.5-1.01-0.75-2.19-0.75-3.52c0-1.34,0.25-2.51,0.75-3.52
			c0.5-1.01,1.21-1.79,2.14-2.34c0.92-0.55,1.99-0.82,3.21-0.82c1.21,0,2.29,0.27,3.22,0.82c0.93,0.55,1.65,1.32,2.15,2.34
			c0.5,1.01,0.75,2.19,0.75,3.52c0,1.34-0.25,2.51-0.75,3.52c-0.5,1.01-1.22,1.79-2.15,2.34c-0.93,0.55-2.01,0.82-3.22,0.82
			C92.08,46.32,91.01,46.05,90.08,45.5z M96.21,43.3c0.68-0.84,1.02-2.05,1.02-3.66c0-1.57-0.34-2.78-1.03-3.63
			c-0.69-0.85-1.66-1.28-2.9-1.28c-1.25,0-2.22,0.43-2.9,1.28c-0.69,0.85-1.03,2.06-1.03,3.63c0,1.58,0.34,2.8,1.02,3.64
			c0.68,0.85,1.65,1.27,2.92,1.27C94.56,44.55,95.53,44.13,96.21,43.3z"/>
		<path class="st0" d="M109.42,33.91c0,0.28-0.08,0.51-0.24,0.67c-0.16,0.17-0.43,0.27-0.82,0.3l-0.79,0.08
			c-1.18,0.11-2.06,0.52-2.63,1.25c-0.57,0.73-0.86,1.59-0.86,2.57v6.42c0,0.35-0.1,0.62-0.29,0.79c-0.19,0.18-0.45,0.26-0.77,0.26
			s-0.58-0.09-0.78-0.28c-0.2-0.18-0.3-0.44-0.3-0.78V34.07c0-0.33,0.11-0.59,0.32-0.78c0.21-0.18,0.47-0.28,0.77-0.28
			c0.28,0,0.52,0.09,0.71,0.28c0.19,0.18,0.29,0.44,0.29,0.75v1.48c0.37-0.77,0.89-1.36,1.57-1.77c0.68-0.4,1.46-0.64,2.34-0.71
			l0.37-0.03C109.05,32.96,109.42,33.26,109.42,33.91z"/>
		<path class="st0" d="M121.3,45.29c0,0.26-0.09,0.49-0.28,0.69c-0.18,0.19-0.41,0.29-0.67,0.29c-0.23,0-0.47-0.11-0.71-0.32
			l-6.89-5.94v5.2c0,0.33-0.1,0.59-0.3,0.78c-0.2,0.18-0.45,0.28-0.75,0.28c-0.32,0-0.58-0.09-0.78-0.28
			c-0.2-0.18-0.3-0.44-0.3-0.78V29.68c0-0.33,0.1-0.59,0.3-0.78c0.2-0.18,0.46-0.28,0.78-0.28c0.3,0,0.55,0.09,0.75,0.28
			c0.2,0.18,0.3,0.44,0.3,0.78v9.48l6.31-5.78c0.21-0.21,0.45-0.32,0.71-0.32s0.49,0.1,0.69,0.29c0.19,0.19,0.29,0.42,0.29,0.69
			c0,0.3-0.12,0.56-0.37,0.79l-5.2,4.65l5.7,4.96C121.16,44.71,121.3,44.99,121.3,45.29z"/>
		<path class="st0" d="M130.32,45.42c0,0.3-0.11,0.52-0.33,0.67c-0.22,0.15-0.55,0.21-0.99,0.17l-0.71-0.05
			c-1.41-0.11-2.45-0.53-3.12-1.27c-0.67-0.74-1-1.86-1-3.35v-6.63h-1.77c-0.3,0-0.53-0.07-0.7-0.22c-0.17-0.15-0.25-0.35-0.25-0.59
			c0-0.26,0.08-0.48,0.25-0.63c0.17-0.16,0.4-0.24,0.7-0.24h1.77v-2.98c0-0.33,0.1-0.59,0.29-0.78c0.19-0.18,0.46-0.28,0.79-0.28
			c0.32,0,0.57,0.09,0.77,0.28c0.19,0.18,0.29,0.44,0.29,0.78v2.98h2.93c0.28,0,0.51,0.08,0.67,0.24c0.17,0.16,0.25,0.37,0.25,0.63
			c0,0.25-0.08,0.44-0.25,0.59c-0.17,0.15-0.39,0.22-0.67,0.22h-2.93v6.73c0,0.97,0.2,1.67,0.59,2.1c0.4,0.43,0.99,0.67,1.78,0.73
			l0.71,0.05C130.02,44.63,130.32,44.91,130.32,45.42z"/>
		<path class="st0" d="M139.25,33.91c0,0.28-0.08,0.51-0.24,0.67c-0.16,0.17-0.43,0.27-0.82,0.3l-0.79,0.08
			c-1.18,0.11-2.06,0.52-2.63,1.25c-0.57,0.73-0.86,1.59-0.86,2.57v6.42c0,0.35-0.1,0.62-0.29,0.79c-0.19,0.18-0.45,0.26-0.77,0.26
			c-0.32,0-0.58-0.09-0.78-0.28c-0.2-0.18-0.3-0.44-0.3-0.78V34.07c0-0.33,0.11-0.59,0.32-0.78c0.21-0.18,0.47-0.28,0.77-0.28
			c0.28,0,0.52,0.09,0.71,0.28c0.19,0.18,0.29,0.44,0.29,0.75v1.48c0.37-0.77,0.89-1.36,1.57-1.77c0.68-0.4,1.46-0.64,2.34-0.71
			l0.37-0.03C138.88,32.96,139.25,33.26,139.25,33.91z"/>
		<path class="st0" d="M150.63,43.39c0.14,0.16,0.21,0.36,0.21,0.61c0,0.44-0.31,0.84-0.92,1.21c-0.63,0.37-1.3,0.65-2.01,0.83
			c-0.7,0.18-1.39,0.28-2.06,0.28c-1.99,0-3.56-0.59-4.71-1.77c-1.15-1.18-1.73-2.81-1.73-4.88c0-1.32,0.25-2.49,0.77-3.5
			c0.51-1.01,1.23-1.8,2.15-2.36c0.92-0.56,1.98-0.84,3.16-0.84c1.67,0,3,0.55,3.99,1.64c0.99,1.09,1.48,2.57,1.48,4.44
			c0,0.35-0.07,0.61-0.21,0.77c-0.14,0.16-0.37,0.24-0.69,0.24h-8.5c0.16,3.03,1.59,4.54,4.3,4.54c0.69,0,1.28-0.09,1.77-0.28
			c0.49-0.18,1.02-0.44,1.58-0.75c0.46-0.26,0.77-0.4,0.92-0.4C150.32,43.15,150.49,43.23,150.63,43.39z M142.8,35.68
			c-0.68,0.7-1.08,1.7-1.2,2.98h7.47c-0.04-1.3-0.36-2.3-0.98-3c-0.62-0.7-1.48-1.04-2.59-1.04
			C144.38,34.62,143.48,34.97,142.8,35.68z"/>
		<path class="st0" d="M163.88,43.39c0.14,0.16,0.21,0.36,0.21,0.61c0,0.44-0.31,0.84-0.92,1.21c-0.63,0.37-1.3,0.65-2.01,0.83
			c-0.7,0.18-1.39,0.28-2.06,0.28c-1.99,0-3.56-0.59-4.71-1.77c-1.15-1.18-1.73-2.81-1.73-4.88c0-1.32,0.25-2.49,0.77-3.5
			c0.51-1.01,1.23-1.8,2.15-2.36c0.92-0.56,1.98-0.84,3.16-0.84c1.67,0,3,0.55,3.99,1.64c0.99,1.09,1.48,2.57,1.48,4.44
			c0,0.35-0.07,0.61-0.21,0.77c-0.14,0.16-0.37,0.24-0.69,0.24h-8.5c0.16,3.03,1.59,4.54,4.3,4.54c0.69,0,1.28-0.09,1.77-0.28
			c0.49-0.18,1.02-0.44,1.58-0.75c0.46-0.26,0.77-0.4,0.92-0.4C163.57,43.15,163.74,43.23,163.88,43.39z M156.05,35.68
			c-0.68,0.7-1.08,1.7-1.2,2.98h7.47c-0.04-1.3-0.36-2.3-0.98-3c-0.62-0.7-1.48-1.04-2.59-1.04
			C157.63,34.62,156.73,34.97,156.05,35.68z"/>
		<path class="st0" d="M168.7,46.03c-0.73-0.19-1.38-0.47-1.94-0.82c-0.32-0.21-0.54-0.41-0.67-0.59c-0.13-0.18-0.2-0.41-0.2-0.67
			c0-0.23,0.07-0.42,0.2-0.57c0.13-0.15,0.3-0.22,0.51-0.22c0.21,0,0.52,0.13,0.92,0.4c0.53,0.32,1.05,0.57,1.57,0.75
			c0.52,0.18,1.17,0.28,1.94,0.28c0.95,0,1.69-0.17,2.22-0.5c0.53-0.33,0.79-0.82,0.79-1.45c0-0.39-0.1-0.7-0.29-0.94
			c-0.19-0.24-0.53-0.45-1-0.63c-0.47-0.18-1.17-0.37-2.09-0.57c-1.55-0.33-2.66-0.78-3.33-1.35c-0.67-0.56-1-1.33-1-2.3
			c0-0.76,0.21-1.43,0.63-2.01c0.42-0.58,1.01-1.04,1.76-1.37c0.75-0.33,1.6-0.5,2.55-0.5c0.69,0,1.35,0.09,1.99,0.28
			c0.64,0.18,1.21,0.44,1.7,0.78c0.6,0.42,0.9,0.86,0.9,1.32c0,0.23-0.07,0.42-0.21,0.58c-0.14,0.16-0.31,0.24-0.5,0.24
			c-0.21,0-0.53-0.15-0.95-0.45c-0.49-0.32-0.96-0.56-1.4-0.74c-0.44-0.18-0.99-0.26-1.64-0.26c-0.83,0-1.49,0.18-1.99,0.55
			c-0.5,0.37-0.75,0.86-0.75,1.48c0,0.39,0.09,0.7,0.28,0.94c0.18,0.24,0.49,0.45,0.92,0.63c0.43,0.18,1.05,0.37,1.86,0.54
			c1.2,0.26,2.13,0.55,2.79,0.87c0.66,0.32,1.13,0.7,1.41,1.16c0.28,0.46,0.42,1.04,0.42,1.74c0,1.11-0.47,2-1.4,2.68
			c-0.93,0.68-2.17,1.02-3.7,1.02C170.2,46.32,169.43,46.22,168.7,46.03z"/>
	</g>
</g>
</svg>
